<svg width="62" height="62" viewBox="0 0 62 62" fill="none" xmlns="http://www.w3.org/2000/svg">
<path d="M15.371 27.2556V22.1731C15.371 21.8722 15.371 21.7519 15.7636 21.7519C19.1298 21.7519 21.8658 21.5524 23.2243 22.3536C24.586 23.1516 24.643 24.2536 24.6651 24.5829C24.6873 24.9122 24.6778 25.3841 24.0445 26.5336C23.4111 27.6831 20.577 27.7052 18.5313 27.7052H15.8238C15.4913 27.7052 15.371 27.5849 15.371 27.2556ZM24.7 32.5819C25.0136 32.9823 25.2375 33.4454 25.3564 33.9399C25.4753 34.4343 25.4865 34.9486 25.3892 35.4478C25.2919 35.9469 25.0883 36.4194 24.7924 36.833C24.4965 37.2466 24.115 37.5917 23.674 37.8449C23.0261 38.1175 22.3311 38.2606 21.6283 38.2661H15.7921C15.4913 38.2661 15.371 38.2661 15.371 37.8766V31.8599C15.371 31.5591 15.371 31.4387 15.7636 31.4387H19.6428C22.0495 31.4387 23.5536 31.2297 24.7 32.5819Z" fill="#0057FF"/>
<path d="M45.8818 29.7952C45.7205 29.4147 45.4756 29.0754 45.1654 28.8024C44.8551 28.5295 44.4874 28.3298 44.0895 28.2182C43.2942 28.0009 42.4617 27.9548 41.6473 28.0831C40.8328 28.2114 40.0549 28.5111 39.3648 28.9623C38.6771 29.6572 38.2328 30.5559 38.0982 31.5242C38.0982 31.863 38.0982 31.9263 38.5003 31.9263H46.0053C46.3758 31.9263 46.3758 31.9263 46.3442 31.4608C46.3087 30.8789 46.1532 30.3112 45.8818 29.7952ZM45.8818 29.7952C45.7205 29.4147 45.4724 29.0754 45.1622 28.8024C44.8519 28.5295 44.4874 28.3298 44.0895 28.2182C43.2942 28.0009 42.4617 27.9548 41.6473 28.0831C40.8328 28.2114 40.0549 28.5111 39.3648 28.9623C38.6771 29.6572 38.2296 30.5559 38.095 31.5242C38.095 31.863 38.095 31.9263 38.4972 31.9263H46.0053C46.3758 31.9263 46.3758 31.9263 46.3442 31.4608C46.3087 30.8789 46.1469 30.3112 45.8755 29.7952M49.4 0H12.35C9.07458 0 5.93331 1.30116 3.61723 3.61723C1.30116 5.93331 0 9.07458 0 12.35V49.4C0 52.6754 1.30116 55.8167 3.61723 58.1328C5.93331 60.4488 9.07458 61.75 12.35 61.75H49.4C52.6754 61.75 55.8167 60.4488 58.1328 58.1328C60.4488 55.8167 61.75 52.6754 61.75 49.4V12.35C61.75 9.07458 60.4488 5.93331 58.1328 3.61723C55.8167 1.30116 52.6754 0 49.4 0ZM37.297 19.665C37.297 19.4212 37.297 19.3262 37.5757 19.3262H47.5792V21.9228C47.5792 21.9228 47.5887 22.1065 47.424 22.1065H37.7308C37.297 22.1065 37.297 22.1065 37.297 21.6758V19.665ZM28.0345 42.3605C24.2345 44.4283 17.8473 43.5955 10.2822 43.5955V17.9993H22.3535C25.441 17.9993 29.1143 18.772 30.1023 22.0432C30.6154 23.4719 30.5841 25.0396 30.0146 26.4467C29.4451 27.8539 28.3772 29.002 27.0148 29.6717C28.2706 30.1364 29.3669 30.9511 30.1741 32.0194C30.9813 33.0878 31.4655 34.365 31.5694 35.6999C31.6733 37.0348 31.3927 38.3716 30.7606 39.552C30.1285 40.7324 29.1715 41.707 28.0028 42.3605H28.0345ZM51.0372 35.074H38.6872C38.3483 35.074 38.038 35.2577 38.0982 35.6915C38.4687 37.5123 39.3015 39.4282 41.1888 39.7068C42.1854 40.0034 43.2526 39.9578 44.2202 39.5773C45.1878 39.1968 46.0002 38.5033 46.5278 37.6073C46.5278 37.6073 46.683 37.4205 46.7748 37.4205H50.7902C50.7902 37.4205 51.0372 37.4205 50.9738 37.6358C50.5504 38.8349 49.9237 39.9521 49.1213 40.9387C48.0482 41.9638 46.7532 42.7278 45.337 43.1713C43.9207 43.6149 42.4213 43.7262 40.9551 43.4965C39.4889 43.2668 38.0954 42.7022 36.8827 41.8468C35.67 40.9913 34.6707 39.8679 33.9625 38.5637C33.5269 37.694 33.2553 36.7515 33.1613 35.7833C32.6106 33.35 33.0315 30.7979 34.3346 28.6703C35.6376 26.5428 37.7197 25.008 40.1375 24.3928C47.1453 22.8792 51.5913 27.6957 51.5913 34.4882C51.6017 34.5676 51.5937 34.6483 51.5679 34.7241C51.5422 34.7999 51.4993 34.8688 51.4427 34.9254C51.3861 34.982 51.3172 35.0248 51.2414 35.0506C51.1656 35.0764 51.0849 35.0844 51.0055 35.074H51.0372ZM44.1212 28.2182C43.3265 27.9977 42.4935 27.9524 41.6797 28.0852C40.8658 28.2118 40.1375 28.367 39.3965 28.9623C38.6555 29.5545 38.2628 30.5552 38.1298 31.5242C38.1298 31.863 38.1298 31.9263 38.532 31.9263H46.0053C46.3758 31.9263 46.3758 31.9263 46.3442 31.4608C46.3087 30.8789 46.1532 30.3112 45.8818 29.7952C45.7205 29.4147 45.4756 29.0754 45.1654 28.8024C44.8551 28.5295 44.4874 28.3298 44.0895 28.2182H44.1212Z" fill="#0057FF"/>
</svg>
