<svg width="28" height="28" viewBox="0 0 28 28" fill="none" xmlns="http://www.w3.org/2000/svg">
<g clip-path="url(#clip0_160_232)">
<path opacity="0.42" d="M23.2028 16.3472C25.2409 16.3472 26.8931 14.695 26.8931 12.6569C26.8931 10.6188 25.2409 8.96655 23.2028 8.96655C21.1647 8.96655 19.5125 10.6188 19.5125 12.6569C19.5125 14.695 21.1647 16.3472 23.2028 16.3472Z" fill="#4DD0E1"/>
<path d="M22.7959 10.0954C22.9513 10.4191 22.4569 10.8304 22.2644 11.0863C21.7634 11.7535 22.0238 12.2719 21.6497 12.88C21.3675 13.3372 20.4728 13.6522 20.3044 12.5344C20.1994 11.8344 20.6369 11.0425 20.9344 10.7188C21.9209 9.64691 22.6669 9.82848 22.7959 10.0954Z" fill="white"/>
<path d="M23.2028 16.6731C20.9868 16.6731 19.1843 14.8706 19.1843 12.6547C19.1843 10.4387 20.9868 8.63623 23.2028 8.63623C25.4187 8.63623 27.2212 10.4387 27.2212 12.6547C27.2212 14.8706 25.4165 16.6731 23.2028 16.6731ZM23.1262 9.20498C21.2231 9.20498 19.6743 10.7537 19.6743 12.6569C19.6743 14.56 21.2231 16.1087 23.1262 16.1087C25.0293 16.1087 26.5781 14.56 26.5781 12.6569C26.5781 10.7537 25.0315 9.20498 23.1262 9.20498Z" fill="#4DC6E1"/>
<path opacity="0.42" d="M19.5278 26.5825C22.1434 26.5825 24.2637 24.4621 24.2637 21.8465C24.2637 19.2309 22.1434 17.1106 19.5278 17.1106C16.9122 17.1106 14.7919 19.2309 14.7919 21.8465C14.7919 24.4621 16.9122 26.5825 19.5278 26.5825Z" fill="#4DD0E1"/>
<path d="M19.5278 27.02C16.6753 27.02 14.3544 24.699 14.3544 21.8465C14.3544 18.994 16.6753 16.6731 19.5278 16.6731C22.3803 16.6731 24.7012 18.994 24.7012 21.8465C24.7012 24.699 22.3803 27.02 19.5278 27.02ZM19.6591 17.3053C17.1391 17.3053 15.0894 19.355 15.0894 21.875C15.0894 24.395 17.1391 26.4447 19.6591 26.4447C22.1791 26.4447 24.2287 24.395 24.2287 21.875C24.2287 19.355 22.1791 17.3053 19.6591 17.3053Z" fill="#4DC6E1"/>
<path opacity="0.7" d="M18.3793 18.2241C19.3418 18.1585 19.6743 18.8453 19.4359 19.39C19.1296 20.09 18.4165 19.8407 17.7887 20.521C17.3556 20.9913 16.4303 21.501 16.3012 20.4619C16.1874 19.5432 17.2046 18.305 18.3793 18.2241Z" fill="white"/>
<path d="M21.1575 19.4688C21.7372 19.4666 21.8072 18.8147 21.4966 18.4669C21.1378 17.931 19.9369 17.9879 20.2212 18.8716C20.3459 19.261 20.5734 19.471 21.1575 19.4688Z" fill="white"/>
<path opacity="0.42" d="M9.39527 17.9878C14.0308 17.9878 17.7887 14.2299 17.7887 9.59437C17.7887 4.9588 14.0308 1.20093 9.39527 1.20093C4.7597 1.20093 1.00183 4.9588 1.00183 9.59437C1.00183 14.2299 4.7597 17.9878 9.39527 17.9878Z" fill="#4DD0E1"/>
<path opacity="0.7" d="M8.43503 3.22221C9.39534 3.55253 9.64909 4.41003 9.35378 5.14284C9.08253 5.81659 8.06315 6.12065 7.4244 6.46846C6.45096 6.99565 5.7444 7.68034 5.21721 8.65378C4.70753 9.5944 3.33378 9.97503 3.14565 8.60784C2.99909 7.53815 3.66409 6.01565 4.28753 5.23471C4.83878 4.54565 5.59565 3.93096 6.38753 3.53721C6.94534 3.26159 7.82909 3.0144 8.43503 3.22221Z" fill="white"/>
<path d="M12.9041 3.70559C13.2978 4.03809 13.3437 4.6484 12.7991 4.83871C12.5562 4.90653 12.3025 4.79715 12.0509 4.77965C11.5391 4.74465 11.3269 4.92621 10.8894 4.74028C10.2375 4.46028 9.96843 3.8959 10.2791 3.43215C10.4322 3.20465 10.7231 3.08871 10.9812 3.0384C11.6812 2.90278 12.4119 3.21121 12.9041 3.70559Z" fill="white"/>
<path d="M9.50463 18.4253C4.69432 18.4253 0.780884 14.5119 0.780884 9.70154C0.780884 4.89123 4.69432 0.97998 9.50463 0.97998C14.3149 0.97998 18.2284 4.89342 18.2284 9.70373C18.2284 14.514 14.3128 18.4253 9.50463 18.4253ZM9.64026 1.90311C5.25213 1.90311 1.68432 5.47092 1.68432 9.85904C1.68432 14.2472 5.25432 17.815 9.64026 17.815C14.0262 17.815 17.5962 14.245 17.5962 9.85904C17.5962 5.47311 14.0262 1.90311 9.64026 1.90311Z" fill="#4DC6E1"/>
<path d="M15.7609 11.0469C15.0631 10.8434 15.0894 11.5937 14.3544 12.7903C13.8644 13.5865 12.8319 14.6212 11.1519 15.0347C10.1631 15.2775 9.71905 15.4853 9.69062 15.8484C9.6403 16.4675 10.4825 16.6337 11.7053 16.3144C14.9472 15.4722 17.2419 11.4778 15.7609 11.0469ZM23.1066 22.96C22.5728 22.7784 22.6997 23.6009 21.6453 24.3425C20.5209 25.1344 19.8406 24.944 19.8012 25.3925C19.7597 25.8715 20.93 25.8694 22.1484 24.9615C23.205 24.1784 23.6469 23.1437 23.1066 22.96ZM26.1144 13.0922C26.2412 12.4206 26.0816 11.0097 25.4012 11.4603C25.1278 11.6419 25.5587 12.4184 25.4275 13.0856C25.2525 13.9803 24.92 14.4484 24.1369 15.0062C23.9575 15.1331 24.0537 15.3694 24.3928 15.2469C25.2875 14.9253 25.8956 14.2603 26.1144 13.0922Z" fill="white"/>
</g>
<defs>
<clipPath id="clip0_160_232">
<rect width="28" height="28" fill="white"/>
</clipPath>
</defs>
</svg>
