<svg width="40" height="30" viewBox="0 0 40 30" fill="none" xmlns="http://www.w3.org/2000/svg">
<g clip-path="url(#clip0_146_273)">
<path d="M9.09094 29.8524V14.4777L4.29797 10.1156L0 7.69495V27.1391C0 28.6404 1.22266 29.8524 2.72734 29.8524H9.09094Z" fill="#4285F4"/>
<path d="M30.9091 29.8523H37.2727C38.7819 29.8523 40 28.6358 40 27.1391V7.69507L35.1319 10.4677L30.9091 14.4777V29.8523Z" fill="#34A853"/>
<path d="M9.09091 14.4777L8.43872 8.47041L9.09091 2.72083L20 10.8603L30.909 2.72083L31.6386 8.16L30.909 14.4777L20 22.6172L9.09091 14.4777Z" fill="#EA4335"/>
<path d="M30.9091 2.72078V14.4777L40 7.69487V4.07731C40 0.722128 36.15 -1.19057 33.4547 0.82161L30.9091 2.72078Z" fill="#FBBC04"/>
<path d="M0 7.69495L4.18109 10.8146L9.09094 14.4777V2.72085L6.54531 0.821681C3.84531 -1.19065 0 0.722199 0 4.07723V7.69495Z" fill="#C5221F"/>
</g>
<defs>
<clipPath id="clip0_146_273">
<rect width="40" height="30" fill="white"/>
</clipPath>
</defs>
</svg>
