<svg width="40" height="39" viewBox="0 0 40 39" fill="none" xmlns="http://www.w3.org/2000/svg">
<g clip-path="url(#clip0_140_257)">
<path d="M33.3594 0H6.64062C2.97311 0 0 2.96835 0 6.63V32.3076C0 35.9692 2.97311 38.9376 6.64062 38.9376H33.3594C37.0269 38.9376 40 35.9692 40 32.3076V6.63C40 2.96835 37.0269 0 33.3594 0Z" fill="#330000"/>
<path d="M19.3834 23.3672H13.185L11.9237 27.2786C11.9066 27.35 11.865 27.4131 11.8062 27.4571C11.7474 27.5012 11.6751 27.5233 11.6017 27.5198H8.46217C8.28321 27.5198 8.22061 27.4215 8.27436 27.225L13.6411 11.7938C13.6947 11.6331 13.7484 11.45 13.802 11.2446C13.8723 10.8871 13.9083 10.5239 13.9094 10.1597C13.9057 10.1342 13.908 10.1082 13.9162 10.0838C13.9243 10.0594 13.9381 10.0372 13.9563 10.019C13.9745 10.0008 13.9967 9.98703 14.0212 9.97888C14.0456 9.97073 14.0716 9.96837 14.0972 9.972H18.3637C18.4887 9.972 18.5603 10.0167 18.5784 10.1062L24.6695 27.2518C24.7232 27.4307 24.6695 27.52 24.5086 27.5198H21.0201C20.9603 27.5263 20.9 27.5109 20.8507 27.4764C20.8013 27.4419 20.7662 27.3907 20.7519 27.3323L19.3834 23.3672ZM14.1509 19.9917H18.3906L18.3301 19.7925L18.2331 19.4771L18.1639 19.2556L18.0534 18.9067L17.8186 18.1724L17.612 17.5215L17.0756 15.8257C16.9421 15.4042 16.814 14.981 16.6912 14.5562L16.5931 14.2115L16.4784 13.8038L16.3034 13.172L16.2706 13.053H16.2439C16.1096 13.696 15.9461 14.3327 15.7539 14.9609L15.3558 16.2395L15.1367 16.9458L14.9156 17.6609C14.8757 17.7901 14.8359 17.9178 14.7961 18.0441L14.6773 18.4182L14.5592 18.7835L14.4417 19.1398L14.3248 19.4872C14.2861 19.6016 14.2474 19.7145 14.2087 19.8257L14.1509 19.9917ZM28.2917 12.8118C28.018 12.8228 27.7451 12.7759 27.4908 12.6744C27.2365 12.5728 27.0065 12.4188 26.8159 12.2225C26.6259 12.0175 26.4783 11.7771 26.3816 11.515C26.2849 11.253 26.241 10.9744 26.2523 10.6954C26.2426 10.4191 26.2913 10.1439 26.3954 9.88774C26.4994 9.63156 26.6564 9.40018 26.8561 9.20869C27.2412 8.83954 27.7542 8.63295 28.2881 8.63196L28.3453 8.63258C28.9894 8.63258 29.4948 8.82457 29.8615 9.20853C30.0466 9.4081 30.1905 9.64214 30.2848 9.89727C30.3792 10.1524 30.4223 10.4236 30.4115 10.6954C30.4229 10.9756 30.3777 11.2552 30.2786 11.5175C30.1795 11.7799 30.0285 12.0197 29.8347 12.2226C29.639 12.4151 29.4068 12.5666 29.1517 12.6681C28.8966 12.7696 28.6237 12.8192 28.349 12.8138L28.2917 12.8118ZM26.4401 27.2518V14.4461C26.44 14.2853 26.5116 14.2049 26.6548 14.2049H29.9555C30.0985 14.2049 30.17 14.2853 30.1701 14.4461V27.2518C30.1701 27.4307 30.0986 27.52 29.9555 27.5198H26.6817C26.5292 27.5198 26.4489 27.4396 26.4409 27.2793L26.4401 27.2518Z" fill="#FF9A00"/>
</g>
<defs>
<clipPath id="clip0_140_257">
<rect width="40" height="39" fill="white"/>
</clipPath>
</defs>
</svg>
