<svg width="16" height="16" viewBox="0 0 16 16" fill="none" xmlns="http://www.w3.org/2000/svg">
<g clip-path="url(#clip0_146_279)">
<path d="M13.6327 13.633H11.262V9.92029C11.262 9.03498 11.2462 7.89529 10.029 7.89529C8.79425 7.89529 8.60531 8.85991 8.60531 9.85585V13.6327H6.23469V5.99798H8.5105V7.04135H8.54238C8.77015 6.65193 9.09927 6.33157 9.49469 6.11439C9.89012 5.89721 10.337 5.79133 10.7879 5.80804C13.1907 5.80804 13.6337 7.38854 13.6337 9.44466L13.6327 13.633ZM3.55969 4.95441C2.79988 4.95454 2.18381 4.33866 2.18369 3.57885C2.18356 2.81904 2.79938 2.20298 3.55919 2.20285C4.319 2.20266 4.93506 2.81854 4.93519 3.57835C4.93526 3.94323 4.79038 4.29319 4.53242 4.55125C4.27447 4.80931 3.92457 4.95433 3.55969 4.95441ZM4.74506 13.633H2.37188V5.99798H4.745L4.74506 13.633ZM14.8146 0.00116449H1.18063C0.536251 -0.00608551 0.00781396 0.510102 -6.10352e-05 1.15448V14.8453C0.00756396 15.49 0.535939 16.0067 1.18056 15.9999H14.8146C15.4606 16.0079 15.991 15.4912 15.9999 14.8453V1.15341C15.9908 0.507789 15.4603 -0.00833551 14.8146 0.000101993" fill="#0A66C2"/>
</g>
<defs>
<clipPath id="clip0_146_279">
<rect width="16" height="16" fill="white"/>
</clipPath>
</defs>
</svg>
