<svg width="40" height="40" viewBox="0 0 40 40" fill="none" xmlns="http://www.w3.org/2000/svg">
<g clip-path="url(#clip0_145_270)">
<path d="M0 10C0 4.47719 4.47719 0 10 0H30C35.5228 0 40 4.47719 40 10V30C40 35.5228 35.5228 40 30 40H10C4.47719 40 0 35.5228 0 30V10Z" fill="#FFDD33"/>
<path d="M26.593 7.625H22.9619L25.9878 12.9416L19.3308 7.625H15.6997L19.0283 14.1231L12.0686 7.625H8.4375L12.0686 15.8964L8.4375 32.4375H12.0686L19.0283 14.7147L15.6997 32.4375H19.3308L25.9878 13.5331L22.9619 32.4375H26.593L33.25 11.7598L26.593 7.625Z" fill="black"/>
</g>
<defs>
<clipPath id="clip0_145_270">
<rect width="40" height="40" fill="white"/>
</clipPath>
</defs>
</svg>
