<svg width="40" height="39" viewBox="0 0 40 39" fill="none" xmlns="http://www.w3.org/2000/svg">
<g clip-path="url(#clip0_140_260)">
<path d="M33.3594 0H6.64062C2.97311 0 0 2.96835 0 6.63V32.3076C0 35.9692 2.97311 38.9376 6.64062 38.9376H33.3594C37.0269 38.9376 40 35.9692 40 32.3076V6.63C40 2.96835 37.0269 0 33.3594 0Z" fill="#001E36"/>
<path d="M9.00684 27.3054V10.1863C9.00684 10.0614 9.06053 9.9989 9.16793 9.9988L9.33777 9.99833L9.62809 9.99521L10.0315 9.98725L11.3831 9.9587L12.8323 9.93187C13.342 9.92303 13.8473 9.91856 14.3482 9.91846C15.7076 9.91846 16.8525 10.0881 17.7829 10.4275C18.6223 10.7107 19.3878 11.1775 20.0236 11.7937C20.5626 12.3278 20.9791 12.9722 21.2445 13.6826C21.4954 14.3739 21.6226 15.1038 21.6203 15.8391C21.6203 17.2682 21.2893 18.447 20.6273 19.3755C19.9799 20.2813 19.077 20.9741 18.0336 21.3654L17.944 21.3982C16.8545 21.8039 15.6479 21.9506 14.3246 21.9598L14.119 21.9604L13.8139 21.9588L13.66 21.9567L13.4884 21.9526L13.385 21.9486L13.3221 21.9453L13.1676 21.9397L12.9787 21.9358L12.6943 21.9337L12.6311 21.9336V27.2786C12.6358 27.3114 12.6328 27.3448 12.6223 27.3762C12.6118 27.4076 12.5941 27.4361 12.5707 27.4595C12.5473 27.4829 12.5187 27.5006 12.4872 27.511C12.4558 27.5215 12.4223 27.5245 12.3895 27.5198H9.1948C9.06939 27.5199 9.00673 27.4484 9.00684 27.3054ZM12.6312 13.2136V18.7972C12.8635 18.8152 13.0781 18.8241 13.275 18.824H14.1606C14.7712 18.8219 15.3782 18.7312 15.9626 18.5546L16.0792 18.5183C16.6109 18.3607 17.086 18.0538 17.4478 17.6341C17.784 17.2381 17.9582 16.6925 17.9703 15.9973L17.9711 15.9195C17.9851 15.4012 17.8501 14.8899 17.5818 14.446C17.3 14.0167 16.8924 13.6846 16.4146 13.4949C15.7909 13.2528 15.1246 13.1389 14.4557 13.1601L14.1154 13.1611L13.9007 13.1629L13.6959 13.1656L13.4068 13.1712L13.1959 13.1771L13.0864 13.1812L12.94 13.1881L12.8153 13.1957L12.7442 13.2013L12.6828 13.2072L12.6557 13.2104L12.6312 13.2136ZM31.9953 17.7819C31.5271 17.5419 31.0307 17.3615 30.5175 17.245L30.3987 17.2194C29.8341 17.0901 29.2577 17.0188 28.6786 17.0068L28.5339 17.0051C28.1943 16.9959 27.8553 17.0365 27.5276 17.1257C27.3191 17.1721 27.1337 17.2907 27.0042 17.4604C26.9167 17.5963 26.8701 17.7544 26.8701 17.916C26.875 18.0726 26.9316 18.2232 27.0311 18.3445C27.1735 18.5107 27.3447 18.6501 27.5365 18.7559L27.5946 18.7866C27.9772 18.9922 28.3714 19.1756 28.7753 19.3357C29.6758 19.6369 30.5362 20.0462 31.3378 20.5547C31.8838 20.8988 32.3357 21.3729 32.6528 21.9345C32.9192 22.4662 33.0527 23.0545 33.0418 23.649C33.0578 24.4341 32.833 25.2053 32.3978 25.8593C31.9317 26.5232 31.2844 27.0392 30.5328 27.346C29.7457 27.6913 28.7792 27.8697 27.6332 27.8814L27.5142 27.882C26.8038 27.8891 26.0944 27.827 25.3961 27.6967L25.2467 27.6677C24.6587 27.56 24.0864 27.38 23.5428 27.1318C23.4881 27.1037 23.4419 27.0616 23.4089 27.0098C23.3759 26.958 23.3573 26.8983 23.355 26.837V23.917C23.3517 23.8886 23.3563 23.8599 23.3681 23.834C23.38 23.808 23.3986 23.7857 23.4221 23.7695C23.4452 23.7565 23.4716 23.7508 23.498 23.7532C23.5244 23.7556 23.5494 23.766 23.5696 23.783C24.2116 24.1609 24.9087 24.4365 25.6357 24.6001C26.2766 24.7605 26.934 24.846 27.5946 24.8547C28.2206 24.8547 28.6812 24.7743 28.9765 24.6135C29.1098 24.5525 29.2226 24.4542 29.3011 24.3306C29.3797 24.207 29.4208 24.0634 29.4193 23.917C29.4193 23.685 29.2852 23.4618 29.0168 23.2473C28.9043 23.1574 28.743 23.0596 28.5329 22.954L28.4325 22.9047L28.3253 22.8543L28.269 22.8287L28.1512 22.7766L28.0898 22.7501L27.9617 22.6964L27.895 22.6691L27.7565 22.6137L27.6846 22.5857L27.5357 22.5284L27.38 22.4702C26.5373 22.1777 25.7384 21.7721 25.0051 21.2646C24.4806 20.9005 24.0487 20.4188 23.744 19.8582C23.4802 19.3302 23.3468 18.7469 23.355 18.157C23.3533 17.4481 23.5483 16.7526 23.9184 16.1477C24.3403 15.4816 24.9459 14.9512 25.6626 14.6208C26.4496 14.2281 27.4335 14.0316 28.6142 14.0312C29.3058 14.0257 29.9967 14.075 30.6804 14.1787C31.1755 14.2414 31.6596 14.3721 32.1189 14.5671C32.1928 14.5883 32.2523 14.6428 32.2798 14.7145C32.2981 14.7799 32.307 14.8474 32.3067 14.9154V17.6213C32.3106 17.6852 32.2798 17.7465 32.2262 17.7819C32.1903 17.7998 32.1508 17.809 32.1107 17.809C32.0707 17.809 32.0312 17.7998 31.9953 17.7819Z" fill="#31A8FF"/>
</g>
<defs>
<clipPath id="clip0_140_260">
<rect width="40" height="39" fill="white"/>
</clipPath>
</defs>
</svg>
