<svg width="40" height="40" viewBox="0 0 40 40" fill="none" xmlns="http://www.w3.org/2000/svg">
<path d="M23.6625 21.625L21.2212 3.75H21.0387C16.7768 3.75724 12.6911 5.45144 9.67466 8.46225C6.65823 11.4731 4.95641 15.5556 4.94122 19.8175V20L23.6625 21.625Z" fill="#ED6C47"/>
<path d="M21.4038 3.75H21.2213V20L29.36 23.25L37.5 20V19.8175C37.4848 15.5558 35.7832 11.4735 32.767 8.46269C29.7508 5.45191 25.6654 3.75757 21.4038 3.75Z" fill="#FF8F6B"/>
<path d="M37.5 20V20.1787C37.4841 24.4412 35.7819 28.5241 32.7652 31.5355C29.7484 34.5468 25.6625 36.2418 21.4 36.25H21.0412C16.7789 36.2411 12.6934 34.546 9.67677 31.5348C6.66018 28.5236 4.95773 24.441 4.94122 20.1787V20H37.5Z" fill="#D35230"/>
<path opacity="0.1" d="M22.035 11.7363V29.075C22.0327 29.37 21.9435 29.6578 21.7786 29.9024C21.6136 30.1469 21.3802 30.3374 21.1075 30.45C20.9291 30.5238 20.7381 30.5624 20.545 30.5637H8.78374C8.55546 30.3021 8.33819 30.031 8.13249 29.7513C6.0595 26.991 4.93952 23.632 4.94124 20.18V19.8225C4.93694 16.7086 5.84851 13.6622 7.56249 11.0625C7.74044 10.7834 7.93063 10.5123 8.13249 10.25H20.545C20.9387 10.2526 21.3156 10.4099 21.5944 10.688C21.8731 10.966 22.0314 11.3425 22.035 11.7363Z" fill="black"/>
<path opacity="0.2" d="M21.2212 12.55V29.8887C21.2196 30.081 21.1809 30.2711 21.1075 30.4487C20.9947 30.7212 20.8041 30.9544 20.5596 31.1191C20.315 31.2838 20.0273 31.3728 19.7325 31.375H9.52499C9.26749 31.1133 9.0204 30.8425 8.78374 30.5625C8.55546 30.3008 8.33819 30.0298 8.13249 29.75C6.0595 26.9898 4.93952 23.6307 4.94124 20.1787V19.8212C4.93718 16.7078 5.84874 13.6619 7.56249 11.0625H19.7312C20.1252 11.0651 20.5023 11.2226 20.7811 11.5009C21.0599 11.7792 21.218 12.1561 21.2212 12.55Z" fill="black"/>
<path opacity="0.2" d="M21.2212 12.55V28.2637C21.2176 28.6575 21.0594 29.034 20.7806 29.312C20.5019 29.5901 20.125 29.7474 19.7312 29.75H8.13249C6.0595 26.9898 4.93952 23.6307 4.94124 20.1787V19.8212C4.93718 16.7078 5.84874 13.6619 7.56249 11.0625H19.7312C20.1252 11.0651 20.5023 11.2226 20.7811 11.5009C21.0599 11.7792 21.218 12.1561 21.2212 12.55Z" fill="black"/>
<path opacity="0.2" d="M20.4075 12.55V28.2637C20.4039 28.6575 20.2456 29.034 19.9669 29.312C19.6881 29.5901 19.3112 29.7474 18.9175 29.75H8.13249C6.0595 26.9898 4.93952 23.6307 4.94124 20.1787V19.8212C4.93718 16.7078 5.84874 13.6619 7.56249 11.0625H18.9175C19.3114 11.0651 19.6885 11.2226 19.9673 11.5009C20.2461 11.7792 20.4042 12.1561 20.4075 12.55Z" fill="black"/>
<path d="M3.9925 11.0625H18.915C19.3103 11.0622 19.6895 11.2188 19.9694 11.498C20.2493 11.7771 20.4068 12.156 20.4075 12.5513V27.4488C20.4068 27.844 20.2493 28.2229 19.9694 28.5021C19.6895 28.7812 19.3103 28.9378 18.915 28.9375H3.9925C3.79663 28.9382 3.60257 28.9001 3.42143 28.8256C3.2403 28.7511 3.07568 28.6415 2.937 28.5032C2.79833 28.3648 2.68834 28.2005 2.61335 28.0195C2.53835 27.8386 2.49983 27.6446 2.5 27.4488V12.5513C2.49983 12.3554 2.53835 12.1614 2.61335 11.9805C2.68834 11.7995 2.79833 11.6352 2.937 11.4969C3.07568 11.3585 3.2403 11.249 3.42143 11.1744C3.60257 11.0999 3.79663 11.0618 3.9925 11.0625Z" fill="url(#paint0_linear_137_214)"/>
<path d="M11.6163 15.035C12.5875 14.9711 13.5501 15.2527 14.3338 15.83C14.6557 16.1166 14.9082 16.4728 15.0719 16.8716C15.2357 17.2703 15.3064 17.7011 15.2788 18.1313C15.2894 18.7372 15.1277 19.3337 14.8125 19.8513C14.4928 20.36 14.0332 20.7658 13.4888 21.02C12.8664 21.309 12.1861 21.4518 11.5 21.4375H9.60877V24.9375H7.67627V15.035H11.6163ZM9.60752 19.925H11.2713C11.7987 19.9625 12.3217 19.8065 12.7425 19.4863C12.9145 19.3223 13.0484 19.1225 13.1348 18.9012C13.2211 18.6798 13.2579 18.4422 13.2425 18.205C13.2425 17.1142 12.6071 16.5684 11.3363 16.5675H9.60752V19.925Z" fill="white"/>
<defs>
<linearGradient id="paint0_linear_137_214" x1="5.6175" y1="9.89251" x2="17.29" y2="30.1075" gradientUnits="userSpaceOnUse">
<stop stop-color="#CA4C28"/>
<stop offset="0.5" stop-color="#C5401E"/>
<stop offset="1" stop-color="#B62F14"/>
</linearGradient>
</defs>
</svg>
