<svg width="40" height="40" viewBox="0 0 40 40" fill="none" xmlns="http://www.w3.org/2000/svg">
<path d="M36.0075 3.75001H12.1313C11.9355 3.74951 11.7416 3.78767 11.5606 3.86228C11.3796 3.93689 11.2151 4.04649 11.0766 4.1848C10.938 4.32311 10.8282 4.4874 10.7532 4.66827C10.6783 4.84913 10.6399 5.043 10.64 5.23876V11.875L24.4763 15.9375L37.5 11.875V5.23876C37.5002 5.04289 37.4617 4.84892 37.3867 4.66798C37.3117 4.48703 37.2017 4.32268 37.063 4.18436C36.9243 4.04603 36.7597 3.93646 36.5786 3.86192C36.3975 3.78738 36.2034 3.74935 36.0075 3.75001Z" fill="#41A5EE"/>
<path d="M37.5 11.875H10.64V20L24.4763 22.4375L37.5 20V11.875Z" fill="#2B7CD3"/>
<path d="M10.64 20V28.125L23.6625 29.75L37.5 28.125V20H10.64Z" fill="#185ABD"/>
<path d="M12.1313 36.25H36.0063C36.2022 36.2508 36.3964 36.2129 36.5777 36.1385C36.759 36.064 36.9238 35.9544 37.0626 35.8161C37.2014 35.6778 37.3115 35.5133 37.3866 35.3323C37.4616 35.1513 37.5002 34.9572 37.5 34.7613V28.125H10.64V34.7613C10.6399 34.957 10.6783 35.1509 10.7532 35.3317C10.8282 35.5126 10.938 35.6769 11.0766 35.8152C11.2151 35.9535 11.3796 36.0631 11.5606 36.1377C11.7416 36.2123 11.9355 36.2505 12.1313 36.25Z" fill="#103F91"/>
<path opacity="0.1" d="M20.5425 10.25H10.64V30.5625H20.5425C20.9371 30.5605 21.315 30.4032 21.5944 30.1245C21.8737 29.8458 22.0321 29.4683 22.035 29.0738V11.7387C22.0321 11.3442 21.8737 10.9667 21.5944 10.688C21.315 10.4093 20.9371 10.252 20.5425 10.25Z" fill="black"/>
<path opacity="0.2" d="M19.7288 11.0625H10.64V31.375H19.7288C20.1233 31.373 20.5013 31.2157 20.7806 30.937C21.06 30.6583 21.2183 30.2808 21.2213 29.8863V12.5512C21.2183 12.1567 21.06 11.7792 20.7806 11.5005C20.5013 11.2218 20.1233 11.0645 19.7288 11.0625Z" fill="black"/>
<path opacity="0.2" d="M19.7288 11.0625H10.64V29.75H19.7288C20.1233 29.748 20.5013 29.5907 20.7806 29.312C21.06 29.0333 21.2183 28.6558 21.2213 28.2612V12.5512C21.2183 12.1567 21.06 11.7792 20.7806 11.5005C20.5013 11.2218 20.1233 11.0645 19.7288 11.0625Z" fill="black"/>
<path opacity="0.2" d="M18.915 11.0625H10.64V29.75H18.915C19.3096 29.748 19.6875 29.5907 19.9669 29.312C20.2462 29.0333 20.4046 28.6558 20.4075 28.2612V12.5512C20.4046 12.1567 20.2462 11.7792 19.9669 11.5005C19.6875 11.2218 19.3096 11.0645 18.915 11.0625Z" fill="black"/>
<path d="M3.9925 11.0625H18.915C19.3103 11.0622 19.6895 11.2188 19.9694 11.498C20.2493 11.7771 20.4068 12.156 20.4075 12.5513V27.4488C20.4068 27.844 20.2493 28.2229 19.9694 28.5021C19.6895 28.7812 19.3103 28.9378 18.915 28.9375H3.9925C3.79663 28.9382 3.60257 28.9001 3.42143 28.8256C3.2403 28.7511 3.07568 28.6415 2.937 28.5032C2.79833 28.3648 2.68834 28.2005 2.61335 28.0195C2.53835 27.8386 2.49983 27.6446 2.5 27.4488V12.5513C2.49983 12.3554 2.53835 12.1614 2.61335 11.9805C2.68834 11.7995 2.79833 11.6352 2.937 11.4969C3.07568 11.3585 3.2403 11.249 3.42143 11.1744C3.60257 11.0999 3.79663 11.0618 3.9925 11.0625Z" fill="url(#paint0_linear_137_224)"/>
<path d="M8.62499 22.485C8.65415 22.715 8.67332 22.9154 8.68249 23.0863H8.71749C8.72999 22.9238 8.75707 22.7279 8.79874 22.4988C8.86124 22.155 8.87624 22.0763 8.90999 21.9175L10.4787 15.1588H12.5087L14.1337 21.8163C14.2276 22.2282 14.2952 22.6457 14.3362 23.0663H14.3637C14.3949 22.6569 14.4513 22.2499 14.5325 21.8475L15.8312 15.15H17.6775L15.3975 24.835H13.2387L11.6925 18.4275C11.6475 18.2425 11.5967 18.0017 11.54 17.705C11.4833 17.4084 11.4483 17.1917 11.435 17.055H11.4087C11.3912 17.2125 11.3562 17.4463 11.3037 17.7563C11.2512 18.0663 11.2096 18.2963 11.1787 18.4463L9.72499 24.8388H7.52999L5.23749 15.1588H7.11249L8.52624 21.9313C8.56745 22.1143 8.6004 22.2991 8.62499 22.485Z" fill="white"/>
<defs>
<linearGradient id="paint0_linear_137_224" x1="5.6175" y1="9.89251" x2="17.29" y2="30.1075" gradientUnits="userSpaceOnUse">
<stop stop-color="#2368C4"/>
<stop offset="0.5" stop-color="#1A5DBE"/>
<stop offset="1" stop-color="#1146AC"/>
</linearGradient>
</defs>
</svg>
