<svg width="40" height="39" viewBox="0 0 40 39" fill="none" xmlns="http://www.w3.org/2000/svg">
<g clip-path="url(#clip0_140_254)">
<path d="M33.3594 0H6.64062C2.97311 0 0 2.96835 0 6.63V32.3076C0 35.9692 2.97311 38.9376 6.64062 38.9376H33.3594C37.0269 38.9376 40 35.9692 40 32.3076V6.63C40 2.96835 37.0269 0 33.3594 0Z" fill="#470137"/>
<path d="M21.0278 10.2399L16.0367 18.4647L21.3766 27.1983C21.4109 27.2595 21.4205 27.3312 21.4034 27.3992C21.3952 27.4283 21.3773 27.4354 21.35 27.4365L21.3197 27.4361L21.2828 27.4351C21.2628 27.4351 21.2405 27.4361 21.2156 27.4401H17.3656L17.29 27.4389C17.0825 27.4334 16.933 27.4038 16.8419 27.2518C16.4856 26.5589 16.1278 25.8669 15.7684 25.1756C15.447 24.5591 15.1167 23.9471 14.7778 23.34L14.6281 23.0726C14.2228 22.3533 13.8247 21.63 13.4341 20.9026H13.4072C13.0464 21.6224 12.6752 22.3368 12.2936 23.0458C11.9087 23.7602 11.5285 24.4702 11.1531 25.1756C10.7774 25.8815 10.3928 26.5825 9.99937 27.2787C9.93609 27.4206 9.83094 27.4503 9.68453 27.4551L9.62359 27.456H5.9475L5.93156 27.4565L5.87906 27.4612C5.84984 27.4629 5.83234 27.4566 5.82672 27.4127C5.81671 27.3473 5.83105 27.2806 5.86703 27.2251L11.0458 18.7325L6.00109 10.2133C5.94755 10.1422 5.93859 10.0842 5.97422 10.0392C5.99402 10.0164 6.01888 9.99839 6.04684 9.98674C6.0748 9.9751 6.10509 9.97011 6.13531 9.97217H9.91875C10.0013 9.96771 10.0837 9.98145 10.1603 10.0124C10.2244 10.0488 10.2795 10.0992 10.3212 10.1598C10.6432 10.8743 11.001 11.5887 11.3947 12.303C11.7852 13.0126 12.1833 13.7182 12.5887 14.4194C12.988 15.1098 13.3595 15.8159 13.7023 16.5359H13.7292C14.0806 15.816 14.4429 15.1016 14.8159 14.3927C15.1824 13.6961 15.558 12.9951 15.9428 12.2895C16.3226 11.5932 16.6938 10.8922 17.0564 10.1867C17.077 10.1205 17.1139 10.0606 17.1637 10.0124C17.23 9.97889 17.3045 9.96493 17.3784 9.97217H20.8936C20.9259 9.96413 20.96 9.96678 20.9906 9.97972C21.0213 9.99267 21.047 10.0152 21.0637 10.044C21.0804 10.0727 21.0874 10.1061 21.0835 10.1391C21.0796 10.1722 21.065 10.203 21.042 10.2271L21.0278 10.2399ZM28.9137 27.7857L28.7287 27.7877C27.4936 27.8065 26.2699 27.5503 25.1464 27.0376C24.0998 26.554 23.2249 25.7646 22.6375 24.7738C22.0451 23.7915 21.7412 22.5677 21.7258 21.1023L21.7252 20.983C21.7151 19.7534 22.0298 18.5429 22.6377 17.4734C23.246 16.4149 24.1328 15.5428 25.202 14.9515L25.2941 14.9016C26.4566 14.2586 27.8608 13.9371 29.5069 13.9371L29.5787 13.9378L29.6609 13.9405L29.7531 13.9446L29.8556 13.9505L30.0278 13.9626L30.2228 13.9782L30.3655 13.9907V8.71294C30.3655 8.58803 30.4191 8.52553 30.5264 8.52543H33.9075C33.9294 8.52229 33.9517 8.52429 33.9726 8.53126C33.9936 8.53823 34.0126 8.54997 34.0282 8.56557C34.0438 8.58116 34.0556 8.60017 34.0626 8.62109C34.0696 8.64202 34.0716 8.66428 34.0684 8.68611V24.5193C34.0684 24.7853 34.0787 25.0715 34.0994 25.3779L34.1494 26.0729L34.1759 26.4749C34.1792 26.5306 34.1656 26.586 34.1369 26.6338C34.1081 26.6816 34.0656 26.7197 34.0148 26.743C33.1426 27.1061 32.2341 27.3755 31.3047 27.5465C30.5157 27.692 29.716 27.772 28.9137 27.7857ZM30.3655 24.4657V17.1519C30.2205 17.1127 30.0724 17.0858 29.9228 17.0716C29.74 17.0531 29.5564 17.0442 29.3727 17.0447C28.7215 17.0382 28.078 17.1851 27.4944 17.4734C26.926 17.7557 26.4406 18.1803 26.0856 18.7058C25.7314 19.2231 25.5482 19.8986 25.5361 20.7323L25.5355 20.8223C25.5225 21.4062 25.618 21.9875 25.8172 22.5367C25.9794 22.9793 26.2358 23.3815 26.5687 23.7156C26.8873 24.023 27.2731 24.2523 27.6956 24.3853C28.1419 24.5296 28.6084 24.602 29.0775 24.5998C29.3278 24.5998 29.5604 24.5908 29.7752 24.5728C29.9465 24.56 30.1164 24.5318 30.2827 24.4886L30.3655 24.4657Z" fill="#FF61F6"/>
</g>
<defs>
<clipPath id="clip0_140_254">
<rect width="40" height="39" fill="white"/>
</clipPath>
</defs>
</svg>
